<svg xmlns="http://www.w3.org/2000/svg" width="126" height="111" fill="none" viewBox="0 0 126 111"><rect width="124.157" height="109.336" x=".5" y=".5" stroke="#E4EBF0" rx="4.5"/><rect width="33.793" height="28" x="26.536" y="41.168" fill="#E4EBF0" rx="1"/><g clip-path="url(#clip0_381_6)"><path fill="#fff" d="M41.1899 52.4269C41.1899 52.8223 41.0328 53.2014 40.7533 53.481C40.4738 53.7605 40.0946 53.9176 39.6993 53.9176C39.3039 53.9176 38.9248 53.7605 38.6452 53.481C38.3657 53.2014 38.2086 52.8223 38.2086 52.4269C38.2086 52.0316 38.3657 51.6524 38.6452 51.3729C38.9248 51.0933 39.3039 50.9363 39.6993 50.9363C40.0946 50.9363 40.4738 51.0933 40.7533 51.3729C41.0328 51.6524 41.1899 52.0316 41.1899 52.4269Z"/><path fill="#fff" d="M37.2149 47.9551C36.6878 47.9551 36.1822 48.1645 35.8095 48.5372C35.4368 48.9099 35.2274 49.4155 35.2274 49.9426V59.8802C35.2274 60.4073 35.4368 60.9129 35.8095 61.2856C36.1822 61.6583 36.6878 61.8677 37.2149 61.8677H49.14C49.6671 61.8677 50.1727 61.6583 50.5454 61.2856C50.9181 60.9129 51.1275 60.4073 51.1275 59.8802V49.9426C51.1275 49.4155 50.9181 48.9099 50.5454 48.5372C50.1727 48.1645 49.6671 47.9551 49.14 47.9551H37.2149ZM49.14 48.9488C49.4036 48.9488 49.6563 49.0535 49.8427 49.2399C50.0291 49.4263 50.1338 49.679 50.1338 49.9426V56.402L46.3803 54.4672C46.2871 54.4205 46.1816 54.4043 46.0787 54.4209C45.9758 54.4375 45.8807 54.486 45.8069 54.5596L42.1201 58.2465L39.4767 56.4855C39.3812 56.422 39.2668 56.3934 39.1526 56.4046C39.0385 56.4159 38.9318 56.4662 38.8506 56.5471L36.2211 58.8864V49.9426C36.2211 49.679 36.3258 49.4263 36.5122 49.2399C36.6985 49.0535 36.9513 48.9488 37.2149 48.9488H49.14Z"/></g><rect width="10.674" height="2.23" x="66.329" y="51.765" fill="#E4EBF0"/><rect width="31.229" height="1.115" x="66.329" y="56.224" fill="#E4EBF0"/><rect width="24.785" height="1.115" x="66.329" y="59.012" fill="#E4EBF0"/><circle cx="110.152" cy="55.88" r="3" fill="#C8D0D7" transform="rotate(-180 110.152 55.8799)"/><path fill="#fff" d="M109.402 56.7405L110.33 55.8799L109.402 55.0193L109.688 54.7549L110.902 55.8799L109.688 57.0049L109.402 56.7405Z"/><circle cx="15.005" cy="55.88" r="3" fill="#C8D0D7"/><path fill="#fff" d="M15.755 55.0193L14.8279 55.8799L15.755 56.7405L15.4696 57.0049L14.255 55.8799L15.4696 54.7549L15.755 55.0193Z"/><defs><clipPath id="clip0_381_6"><rect width="15.9" height="15.9" fill="#fff" transform="translate(35.2253 46.9612)"/></clipPath></defs></svg>