<svg xmlns="http://www.w3.org/2000/svg" width="125" height="110" fill="none" viewBox="0 0 125 110"><rect width="124" height="109" x=".5" y=".5" stroke="#E4EBF0" rx="4.5"/><rect width="98" height="10" x="13" y="86" fill="#C8D0D7" rx="1.946"/><rect width="17.857" height="3.125" x="13" y="13" fill="#C8D0D7" rx=".389"/><rect width="98" height="10.714" x="13" y="17.911" fill="#E4EBF0" rx="1.946"/><rect width="17.857" height="3.125" x="13" y="34" fill="#C8D0D7" rx=".389"/><rect width="98" height="10.714" x="13" y="38.911" fill="#E4EBF0" rx="1.946"/><rect width="15.935" height="3.125" x="30.528" y="58.125" fill="#E4EBF0" rx=".389"/><rect width="15.935" height="3.125" x="95.065" y="58.125" fill="#E4EBF0" rx=".389"/><rect width="14.341" height="10.714" x="13" y="54.554" fill="#E4EBF0" rx="1.946"/><rect width="15.935" height="3.125" x="30.528" y="72.411" fill="#E4EBF0" rx=".389"/><rect width="15.935" height="3.125" x="95.065" y="72.411" fill="#E4EBF0" rx=".389"/><rect width="14.341" height="10.714" x="13" y="68.839" fill="#E4EBF0" rx="1.946"/></svg>