<svg xmlns="http://www.w3.org/2000/svg" width="126" height="111" fill="none" viewBox="0 0 126 111"><rect width="124.157" height="109.336" x=".5" y=".5" stroke="#E4EBF0" rx="4.5"/><rect width="100" height="85.017" x="12.579" y="12.659" fill="#E4EBF0" stroke="#E4EBF0" rx=".5"/><rect width="76.828" height="43.221" x="24.165" y="33.558" fill="#fff" rx="1"/><rect width="17.142" height="4.784" x="54.189" y="64.536" fill="#E4EBF0" rx="2.392"/><rect width="24.526" height="2.23" x="50.601" y="53.203" fill="#E4EBF0"/><rect width="35.117" height="1.115" x="45.02" y="57.662" fill="#E4EBF0"/><rect width="27.87" height="1.115" x="49.007" y="60.449" fill="#E4EBF0"/><ellipse cx="62.832" cy="45.273" fill="#E4EBF0" rx="4.258" ry="4.257"/><path stroke="#C8D0D7" stroke-width="1.398" d="M61.1764 45.2732L62.5957 46.4556L64.4882 44.0908"/><path fill="#fff" d="M101.665 29.0187L102.072 28.6111L103.688 30.227L105.304 28.6111L105.712 29.0187L104.096 30.6346L105.712 32.2505L105.304 32.6581L103.688 31.0422L102.072 32.6581L101.665 32.2505L103.281 30.6346L101.665 29.0187Z"/></svg>