<svg xmlns="http://www.w3.org/2000/svg" width="126" height="111" fill="none" viewBox="0 0 126 111"><rect width="124.157" height="109.336" x=".5" y=".5" stroke="#E4EBF0" rx="4.5"/><rect width="2" height="35" x="61" y="37" fill="#E4EBF0"/><circle r="4.5" fill="#E4EBF0" transform="matrix(-1 0 0 1 62.5 39.5)"/><circle r="4.5" fill="#E4EBF0" transform="matrix(-1 0 0 1 62.5 69.5)"/><path fill="#C8D0D7" fill-rule="evenodd" d="M13 26C11.8954 26 11 26.8954 11 28V51C11 52.1046 11.8954 53 13 53H49C50.1046 53 51 52.1046 51 51V42.3868L56 39.5L51 36.6132V28C51 26.8954 50.1046 26 49 26H13Z" clip-rule="evenodd"/><path fill="#C8D0D7" fill-rule="evenodd" d="M76 56C74.8954 56 74 56.8954 74 58V66.6132L69 69.5L74 72.3868V81C74 82.1046 74.8954 83 76 83H112C113.105 83 114 82.1046 114 81V58C114 56.8954 113.105 56 112 56H76Z" clip-rule="evenodd"/><rect width="20" height="3" x="17" y="33" fill="#E4EBF0"/><rect width="20" height="3" x="82" y="63" fill="#E4EBF0"/><rect width="21" height="1" x="17" y="46" fill="#E4EBF0"/><rect width="21" height="1" x="82" y="76" fill="#E4EBF0"/><rect width="27" height="1" x="17" y="44" fill="#E4EBF0"/><rect width="27" height="1" x="82" y="74" fill="#E4EBF0"/><rect width="27" height="1" x="17" y="42" fill="#E4EBF0"/><rect width="27" height="1" x="82" y="72" fill="#E4EBF0"/></svg>