<svg xmlns="http://www.w3.org/2000/svg" width="126" height="111" fill="none" viewBox="0 0 126 111"><rect width="124.157" height="109.336" x=".5" y=".5" stroke="#E4EBF0" rx="4.5"/><rect width="39.379" height="38.832" x="22" y="14" fill="#C8D0D7" rx="2.507"/><rect width="19.69" height="3.282" x="25.282" y="21.657" fill="#E4EBF0"/><rect width="27.347" height="1.641" x="25.282" y="28.22" fill="#E4EBF0"/><rect width="32.816" height="1.641" x="25.282" y="31.502" fill="#E4EBF0"/><rect width="21.33" height="1.641" x="25.282" y="34.783" fill="#E4EBF0"/><rect width="12.033" height="4.375" x="25.282" y="41.347" fill="#E4EBF0" rx="2.188"/><rect width="39.379" height="38.832" x="22" y="56.621" fill="#C8D0D7" rx="2.507"/><rect width="19.69" height="3.282" x="25.282" y="64.278" fill="#E4EBF0"/><rect width="27.347" height="1.641" x="25.282" y="70.841" fill="#E4EBF0"/><rect width="32.816" height="1.641" x="25.282" y="74.123" fill="#E4EBF0"/><rect width="21.33" height="1.641" x="25.282" y="77.404" fill="#E4EBF0"/><rect width="12.033" height="4.375" x="25.282" y="83.968" fill="#E4EBF0" rx="2.188"/><rect width="39.379" height="38.832" x="64.621" y="14" fill="#C8D0D7" rx="2.507"/><rect width="19.69" height="3.282" x="67.902" y="21.657" fill="#E4EBF0"/><rect width="27.347" height="1.641" x="67.902" y="28.22" fill="#E4EBF0"/><rect width="32.816" height="1.641" x="67.902" y="31.502" fill="#E4EBF0"/><rect width="21.33" height="1.641" x="67.902" y="34.783" fill="#E4EBF0"/><rect width="12.033" height="4.375" x="67.902" y="41.347" fill="#E4EBF0" rx="2.188"/><rect width="39.379" height="38.832" x="64.621" y="56.621" fill="#C8D0D7" rx="2.507"/><rect width="19.69" height="3.282" x="67.902" y="64.278" fill="#E4EBF0"/><rect width="27.347" height="1.641" x="67.902" y="70.841" fill="#E4EBF0"/><rect width="32.816" height="1.641" x="67.902" y="74.123" fill="#E4EBF0"/><rect width="21.33" height="1.641" x="67.902" y="77.404" fill="#E4EBF0"/><rect width="12.033" height="4.375" x="67.902" y="83.968" fill="#E4EBF0" rx="2.188"/></svg>