<svg xmlns="http://www.w3.org/2000/svg" width="126" height="111" fill="none" viewBox="0 0 126 111"><rect width="124.157" height="109.336" x=".5" y=".5" stroke="#E4EBF0" rx="4.5"/><rect width="39" height="38.832" x="22" y="10" fill="#C8D0D7" rx="2.507"/><rect width="19.69" height="3.282" x="25.282" y="17.657" fill="#E4EBF0"/><rect width="27.347" height="1.641" x="25.282" y="24.22" fill="#E4EBF0"/><rect width="32.816" height="1.641" x="25.282" y="27.502" fill="#E4EBF0"/><rect width="21.33" height="1.641" x="25.282" y="30.783" fill="#E4EBF0"/><rect width="12.033" height="4.375" x="25.282" y="37.347" fill="#E4EBF0" rx="2.188"/><rect width="39" height="38.832" x="65" y="60" fill="#C8D0D7" rx="2.507"/><rect width="19.69" height="3.282" x="68.282" y="67.657" fill="#E4EBF0"/><rect width="27.347" height="1.641" x="68.282" y="74.22" fill="#E4EBF0"/><rect width="32.816" height="1.641" x="68.282" y="77.502" fill="#E4EBF0"/><rect width="21.33" height="1.641" x="68.282" y="80.783" fill="#E4EBF0"/><rect width="12.033" height="4.375" x="68.282" y="87.347" fill="#E4EBF0" rx="2.188"/><rect width="39" height="46" x="22" y="53" fill="#C8D0D7" rx="2.507"/><rect width="19.69" height="3.282" x="25.282" y="60.657" fill="#E4EBF0"/><rect width="27.347" height="1.641" x="25.282" y="67.22" fill="#E4EBF0"/><rect width="32.816" height="1.641" x="25.282" y="70.502" fill="#E4EBF0"/><rect width="21.33" height="1.641" x="25.282" y="73.783" fill="#E4EBF0"/><rect width="30" height="1.641" x="25.282" y="77" fill="#E4EBF0"/><rect width="12.033" height="4.375" x="25.282" y="83.563" fill="#E4EBF0" rx="2.188"/><rect width="39" height="46" x="65" y="10" fill="#C8D0D7" rx="2.507"/><rect width="19.69" height="3.282" x="68.282" y="17.657" fill="#E4EBF0"/><rect width="27.347" height="1.641" x="68.282" y="24.22" fill="#E4EBF0"/><rect width="32.816" height="1.641" x="68.282" y="27.502" fill="#E4EBF0"/><rect width="21.33" height="1.641" x="68.282" y="30.783" fill="#E4EBF0"/><rect width="30" height="1.641" x="68.282" y="34" fill="#E4EBF0"/><rect width="12.033" height="4.375" x="68.282" y="40.563" fill="#E4EBF0" rx="2.188"/></svg>