<svg xmlns="http://www.w3.org/2000/svg" width="126" height="111" fill="none" viewBox="0 0 126 111"><rect width="124.157" height="109.336" x=".5" y=".5" stroke="#E4EBF0" rx="4.5"/><rect width="72" height="71" x="27" y="20" fill="#C8D0D7" rx="2.507"/><rect width="36" height="6" x="33" y="34" fill="#E4EBF0"/><rect width="50" height="3" x="33" y="46" fill="#E4EBF0"/><rect width="60" height="3" x="33" y="52" fill="#E4EBF0"/><rect width="39" height="3" x="33" y="58" fill="#E4EBF0"/><rect width="22" height="8" x="33" y="70" fill="#E4EBF0" rx="4"/><path fill="#E4EBF0" d="M21.5 57.5H14.207L16.8535 54.8535L16.1465 54.1465L12.293 58L16.1465 61.8535L16.8535 61.1465L14.207 58.5H21.5V57.5Z"/><path fill="#E4EBF0" d="M104.5 57.5H111.793L109.147 54.8535L109.854 54.1465L113.707 58L109.854 61.8535L109.147 61.1465L111.793 58.5H104.5V57.5Z"/></svg>