<svg xmlns="http://www.w3.org/2000/svg" width="125" height="110" fill="none" viewBox="0 0 125 110"><rect width="124" height="109" x=".5" y=".5" stroke="#E4EBF0" rx="4.5"/><rect width="98" height="10" x="13" y="86" fill="#C8D0D7" rx="1.946"/><rect width="83" height="3" x="28" y="15.5" fill="#E4EBF0"/><rect width="20" height="2" x="28" y="20.5" fill="#E4EBF0"/><rect width="12" height="10" x="13" y="14" fill="#C8D0D7" rx="1"/><rect width="83" height="3" x="28" y="31.5" fill="#E4EBF0"/><rect width="20" height="2" x="28" y="36.5" fill="#E4EBF0"/><rect width="12" height="10" x="13" y="30" fill="#C8D0D7" rx="1"/><rect width="83" height="3" x="28" y="48" fill="#E4EBF0"/><rect width="20" height="1" x="28" y="53" fill="#E4EBF0"/><rect width="12" height="10" x="13" y="46" fill="#C8D0D7" rx="1"/><rect width="83" height="3" x="28" y="64" fill="#E4EBF0"/><rect width="20" height="1" x="28" y="69" fill="#E4EBF0"/><rect width="12" height="10" x="13" y="62" fill="#C8D0D7" rx="1"/></svg>