<svg xmlns="http://www.w3.org/2000/svg" width="126" height="111" fill="none" viewBox="0 0 126 111"><rect width="124.157" height="109.336" x=".5" y=".5" stroke="#E4EBF0" rx="4.5"/><rect width="33.793" height="28" x="26.536" y="36.93" fill="#E4EBF0" rx="1"/><g clip-path="url(#clip0_291_2)"><path fill="#fff" d="M41.19 48.1891C41.19 48.5845 41.0329 48.9636 40.7534 49.2432C40.4738 49.5227 40.0947 49.6798 39.6993 49.6798C39.304 49.6798 38.9248 49.5227 38.6453 49.2432C38.3657 48.9636 38.2087 48.5845 38.2087 48.1891C38.2087 47.7938 38.3657 47.4146 38.6453 47.1351C38.9248 46.8555 39.304 46.6985 39.6993 46.6985C40.0947 46.6985 40.4738 46.8555 40.7534 47.1351C41.0329 47.4146 41.19 47.7938 41.19 48.1891Z"/><path fill="#fff" d="M37.2149 43.7173C36.6878 43.7173 36.1822 43.9267 35.8095 44.2994C35.4368 44.6721 35.2274 45.1777 35.2274 45.7048V55.6424C35.2274 56.1695 35.4368 56.6751 35.8095 57.0478C36.1822 57.4205 36.6878 57.6299 37.2149 57.6299H49.14C49.6671 57.6299 50.1727 57.4205 50.5454 57.0478C50.9181 56.6751 51.1275 56.1695 51.1275 55.6424V45.7048C51.1275 45.1777 50.9181 44.6721 50.5454 44.2994C50.1727 43.9267 49.6671 43.7173 49.14 43.7173H37.2149ZM49.14 44.711C49.4036 44.711 49.6564 44.8157 49.8427 45.0021C50.0291 45.1885 50.1338 45.4412 50.1338 45.7048V52.1642L46.3804 50.2294C46.2872 50.1827 46.1816 50.1665 46.0787 50.1831C45.9758 50.1997 45.8808 50.2482 45.807 50.3218L42.1201 54.0087L39.4767 52.2477C39.3813 52.1842 39.2668 52.1556 39.1527 52.1668C39.0386 52.1781 38.9319 52.2284 38.8506 52.3093L36.2211 54.6486V45.7048C36.2211 45.4412 36.3258 45.1885 36.5122 45.0021C36.6986 44.8157 36.9513 44.711 37.2149 44.711H49.14Z"/></g><rect width="10.674" height="2.23" x="66.329" y="47.527" fill="#E4EBF0"/><rect width="31.229" height="1.115" x="66.329" y="51.987" fill="#E4EBF0"/><rect width="24.785" height="1.115" x="66.329" y="54.774" fill="#E4EBF0"/><circle cx="64.829" cy="71.906" r="1.5" fill="#E4EBF0"/><circle cx="60.329" cy="71.906" r="1.5" fill="#C8D0D7"/><circle cx="110.152" cy="51.642" r="3" fill="#C8D0D7" transform="rotate(-180 110.152 51.6421)"/><path fill="#fff" d="M109.402 52.5027L110.33 51.6421L109.402 50.7815L109.688 50.5171L110.902 51.6421L109.688 52.7671L109.402 52.5027Z"/><circle cx="15.005" cy="51.642" r="3" fill="#C8D0D7"/><path fill="#fff" d="M15.755 50.7815L14.8279 51.6421L15.755 52.5027L15.4696 52.7671L14.255 51.6421L15.4696 50.5171L15.755 50.7815Z"/><defs><clipPath id="clip0_291_2"><rect width="15.9" height="15.9" fill="#fff" transform="translate(35.2254 42.7234)"/></clipPath></defs></svg>