<svg xmlns="http://www.w3.org/2000/svg" width="126" height="111" fill="none" viewBox="0 0 126 111"><rect width="124.157" height="109.336" x=".5" y=".5" stroke="#E4EBF0" rx="4.5"/><rect width="52" height="19" x="9" y="23" fill="#C8D0D7" rx="2"/><rect width="52" height="19" x="9" y="45" fill="#C8D0D7" rx="2"/><rect width="52" height="19" x="9" y="67" fill="#C8D0D7" rx="2"/><rect width="52" height="19" x="64" y="23" fill="#C8D0D7" rx="2"/><rect width="52" height="19" x="64" y="45" fill="#C8D0D7" rx="2"/><rect width="52" height="19" x="64" y="67" fill="#C8D0D7" rx="2"/><rect width="41" height="3" x="15" y="29" fill="#E4EBF0"/><rect width="41" height="3" x="15" y="51" fill="#E4EBF0"/><rect width="41" height="3" x="15" y="73" fill="#E4EBF0"/><rect width="41" height="3" x="70" y="29" fill="#E4EBF0"/><rect width="41" height="3" x="70" y="51" fill="#E4EBF0"/><rect width="41" height="3" x="70" y="73" fill="#E4EBF0"/><rect width="31" height="2" x="20" y="35" fill="#E4EBF0"/><rect width="31" height="2" x="20" y="57" fill="#E4EBF0"/><rect width="31" height="2" x="20" y="79" fill="#E4EBF0"/><rect width="31" height="2" x="75" y="35" fill="#E4EBF0"/><rect width="31" height="2" x="75" y="57" fill="#E4EBF0"/><rect width="31" height="2" x="75" y="79" fill="#E4EBF0"/></svg>