<svg xmlns="http://www.w3.org/2000/svg" width="48" height="48" fill="none" viewBox="0 0 48 48"><path fill="#3A30E5" d="M31.4774 23.8316L45.216 15.8408V31.8224L31.4774 23.8316Z"/><path fill="#3058E5" d="M31.4774 7.99121L45.216 15.982L31.4774 23.9728V7.99121Z"/><path fill="#4067EE" d="M31.4767 7.99121V23.8326L17.7382 15.8418L31.4767 7.99121Z"/><path fill="#476EF9" d="M31.6173 7.99076L17.8788 15.9816V0L31.6173 7.99076Z"/><path fill="#624AF6" d="M17.7384 15.9814V31.963L3.99988 23.9722L17.7384 15.9814Z"/><path fill="#4067EE" d="M17.7384 0V15.9816L3.99988 7.99076L17.7384 0Z"/><path fill="#7C3AED" d="M17.7384 31.8232V47.8048L3.99988 39.814L17.7384 31.8232Z"/><path fill="#4F46E5" d="M31.4774 23.832L45.216 31.8228L31.4774 39.8136V23.832Z"/><path fill="#814AF7" d="M3.99988 23.832L17.7384 31.8228L3.99988 39.8136V23.832Z"/><path fill="#3058E5" d="M3.99988 7.99121L17.7384 15.982L3.99988 23.9728V7.99121Z"/><path fill="#624AF6" d="M31.4767 23.832V39.8136L17.7382 31.8228L31.4767 23.832Z"/><path fill="#3A30E5" d="M31.4774 23.8316L45.216 15.8408V31.8224L31.4774 23.8316Z"/><path fill="#3058E5" d="M31.4774 7.99121L45.216 15.982L31.4774 23.9728V7.99121Z"/><path fill="#4067EE" d="M31.4767 7.99121V23.8326L17.7382 15.8418L31.4767 7.99121Z"/><path fill="#476EF9" d="M31.6173 7.99076L17.8788 15.9816V0L31.6173 7.99076Z"/><path fill="#624AF6" d="M17.7384 15.9814V31.963L3.99988 23.9722L17.7384 15.9814Z"/><path fill="#4067EE" d="M17.7384 0V15.9816L3.99988 7.99076L17.7384 0Z"/><path fill="#7C3AED" d="M17.7384 31.8232V47.8048L3.99988 39.814L17.7384 31.8232Z"/><path fill="#4F46E5" d="M31.4774 23.832L45.216 31.8228L31.4774 39.8136V23.832Z"/><path fill="#814AF7" d="M3.99988 23.832L17.7384 31.8228L3.99988 39.8136V23.832Z"/><path fill="#3058E5" d="M3.99988 7.99121L17.7384 15.982L3.99988 23.9728V7.99121Z"/><path fill="#624AF6" d="M31.4767 23.832V39.8136L17.7382 31.8228L31.4767 23.832Z"/><path fill="#3A30E5" d="M31.4774 23.8316L45.216 15.8408V31.8224L31.4774 23.8316Z"/><path fill="#3058E5" d="M31.4774 7.99121L45.216 15.982L31.4774 23.9728V7.99121Z"/><path fill="#4067EE" d="M31.4767 7.99121V23.8326L17.7382 15.8418L31.4767 7.99121Z"/><path fill="#476EF9" d="M31.6173 7.99076L17.8788 15.9816V0L31.6173 7.99076Z"/><path fill="#624AF6" d="M17.7384 15.9814V31.963L3.99988 23.9722L17.7384 15.9814Z"/><path fill="#4067EE" d="M17.7384 0V15.9816L3.99988 7.99076L17.7384 0Z"/><path fill="#7C3AED" d="M17.7384 31.8232V47.8048L3.99988 39.814L17.7384 31.8232Z"/><path fill="#4F46E5" d="M31.4774 23.832L45.216 31.8228L31.4774 39.8136V23.832Z"/><path fill="#814AF7" d="M3.99988 23.832L17.7384 31.8228L3.99988 39.8136V23.832Z"/><path fill="#3058E5" d="M3.99988 7.99121L17.7384 15.982L3.99988 23.9728V7.99121Z"/><path fill="#624AF6" d="M31.4767 23.832V39.8136L17.7382 31.8228L31.4767 23.832Z"/></svg>